HIERARCHY
ROOT Hips
{
	OFFSET 0.000000 0.000000 0.000000
	CHANNELS 6 Xposition Yposition Zposition Zrotation Yrotation Xrotation 
	JOINT LHipJoint
	{
		OFFSET 0.000000 0.000000 0.000000
		CHANNELS 3 Zrotation Yrotation Xrotation
		JOINT LeftUpLeg
		{
			OFFSET 1.363060 -1.794630 0.839290
			CHANNELS 3 Zrotation Yrotation Xrotation
			JOINT LeftLeg
			{
				OFFSET 2.448110 -6.726130 0.000000
				CHANNELS 3 Zrotation Yrotation Xrotation
				JOINT LeftFoot
				{
					OFFSET 2.562200 -7.039590 0.000000
					CHANNELS 3 Zrotation Yrotation Xrotation
					JOINT LeftToeBase
					{
						OFFSET 0.157640 -0.433110 2.322550
						CHANNELS 3 Zrotation Yrotation Xrotation
						End Site
						{
							OFFSET 0.000000 0.000000 0.000000
						}
					}
				}
			}
		}
	}
	JOINT RHipJoint
	{
		OFFSET 0.000000 0.000000 0.000000
		CHANNELS 3 Zrotation Yrotation Xrotation
		JOINT RightUpLeg
		{
			OFFSET -1.305520 -1.794630 0.839290
			CHANNELS 3 Zrotation Yrotation Xrotation
			JOINT RightLeg
			{
				OFFSET -2.542530 -6.985550 0.000000
				CHANNELS 3 Zrotation Yrotation Xrotation
				JOINT RightFoot
				{
					OFFSET -2.568260 -7.056230 0.000000
					CHANNELS 3 Zrotation Yrotation Xrotation
					JOINT RightToeBase
					{
						OFFSET -0.164730 -0.452590 2.363150
						CHANNELS 3 Zrotation Yrotation Xrotation
						End Site
						{
							OFFSET 0.000000 0.000000 0.000000
						}
					}
				}
			}
		}
	}
}
MOTION
Frames: 30
Frame Time: 0.008333
3.166724 16.501289 6.288107 7.112237 25.871554 1.862905 -11.207641 5.996770 0.369493 7.575034 16.431384 7.528343 0.264514 2.027688 32.480813 1.826800 2.512547 29.841766 0.498100 0.000000 -72.871100 9.059892 -0.777471 -2.264026 18.494569 -23.438995 -29.664170 2.181839 -1.512286 34.461021 -5.203764 -17.951949 -29.213343 -173.301100 -0.000000 -16.776600
3.188184 16.495236 6.444071 7.066946 25.326300 1.823126 -11.234222 5.927540 0.400111 7.471512 15.896449 6.661861 0.316969 2.087890 34.596644 1.902431 2.885407 30.115266 0.686201 0.000000 -68.225800 9.071846 -0.853398 -2.337457 18.472066 -23.553482 -29.082343 2.206726 -1.539073 34.710024 -5.082797 -17.425928 -29.266095 -173.428500 -0.000000 -16.165500
3.207483 16.486559 6.597091 7.040197 24.744242 1.800467 -11.251552 5.847952 0.406882 7.285232 15.413056 5.686098 0.365071 2.160963 36.803633 1.963735 3.507015 29.918548 1.010400 0.000000 -63.605300 9.091666 -0.922478 -2.402724 18.418953 -23.617623 -28.494427 2.231104 -1.564662 34.962636 -4.975570 -16.924730 -29.409076 -173.520300 0.000000 -15.559300
3.224880 16.475974 6.747433 7.030632 24.123527 1.796885 -11.260598 5.759725 0.394300 7.012574 14.974185 4.609899 0.412976 2.245661 39.054501 2.014002 4.370970 29.283867 1.455500 0.000000 -59.351100 9.118714 -0.984906 -2.456903 18.338158 -23.620795 -27.899925 2.253827 -1.588073 35.213166 -4.885353 -16.464231 -29.639520 -173.574500 0.000000 -14.991500
3.240709 16.464330 6.895349 7.034491 23.460926 1.813117 -11.262767 5.664014 0.367319 6.655149 14.571851 3.440941 0.463013 2.339569 41.307730 2.056399 5.450107 28.242636 1.988000 0.000000 -55.601800 9.151595 -1.041372 -2.497260 18.237142 -23.553542 -27.299906 2.273980 -1.608296 35.454045 -4.813657 -16.054459 -29.946566 -173.593201 0.000000 -14.491700
3.255192 16.452493 7.041138 7.045871 22.753858 1.849580 -11.259678 5.561450 0.331526 6.218286 14.195151 2.186483 0.515744 2.439347 43.524846 2.094228 6.705731 26.829258 2.564199 0.000000 -52.391900 9.188192 -1.093100 -2.521516 18.126782 -23.408857 -26.695923 2.291009 -1.624298 35.675558 -4.760326 -15.699417 -30.313027 -173.581200 -0.000000 -14.082100
3.268646 16.441352 7.185021 7.056321 22.000589 1.905041 -11.253633 5.451973 0.294259 5.709542 13.824345 0.858510 0.570282 2.540258 45.660580 2.133187 8.102861 25.114278 3.144200 0.000000 -49.970900 9.225152 -1.141545 -2.528428 18.021167 -23.181634 -26.087740 2.304453 -1.634873 35.865232 -4.723955 -15.399026 -30.715710 -173.545700 -0.000000 -13.777701
3.280939 16.431521 7.327323 7.066601 21.204769 1.981747 -11.242205 5.336201 0.259285 5.131593 13.446326 -0.536932 0.623921 2.639778 47.694048 2.173418 9.579814 23.102975 3.671000 0.000000 -47.907800 9.264367 -1.186615 -2.519319 17.920732 -22.884891 -25.485091 2.315299 -1.640902 36.023650 -4.698692 -15.134653 -31.131761 -173.499400 0.000000 -13.570300
3.292429 16.423640 7.468065 7.061681 20.367884 2.075243 -11.229889 5.213409 0.233987 4.506725 13.038943 -1.989340 0.673775 2.733762 49.591054 2.219894 11.091228 20.876153 4.107200 -0.000000 -46.330100 9.299103 -1.230904 -2.493885 17.847882 -22.512898 -24.879716 2.323048 -1.640214 36.129626 -4.683505 -14.907965 -31.534457 -173.448800 0.000000 -13.457900
3.303072 16.417995 7.607376 7.039498 19.497899 2.184855 -11.215626 5.083714 0.222433 3.845648 12.583889 -3.490528 0.716417 2.820303 51.337500 2.272604 12.577797 18.464759 4.411600 -0.000000 -44.894500 9.329242 -1.274570 -2.455072 17.805315 -22.080628 -24.273516 2.328693 -1.633077 36.178747 -4.673299 -14.702846 -31.903170 -173.404400 -0.000000 -13.419801
3.312856 16.414748 7.745309 6.996747 18.603304 2.309427 -11.199062 4.946483 0.230077 3.159456 12.055616 -5.027895 0.749447 2.896645 52.912800 2.334140 14.000595 15.959515 4.570100 -0.000000 -43.803000 9.353861 -1.317439 -2.406803 17.796075 -21.601704 -23.663569 2.333073 -1.619229 36.162895 -4.664447 -14.508384 -32.221480 -173.374100 -0.000000 -13.431301
3.321720 16.413765 7.881856 6.933890 17.694525 2.446466 -11.179378 4.802269 0.258509 2.462399 11.443268 -6.595318 0.770428 2.963182 54.323206 2.399910 15.296649 13.370550 4.557200 -0.000000 -42.469301 9.373080 -1.359396 -2.352969 17.817488 -21.093869 -23.046615 2.337270 -1.598938 36.079521 -4.653471 -14.312669 -32.480912 -173.363600 0.000000 -13.468600
3.329666 16.414822 8.017024 6.852703 16.781512 2.594521 -11.155438 4.650692 0.310963 1.762946 10.728208 -8.180996 0.778975 3.018653 55.561681 2.469224 16.437216 10.789827 4.387600 0.000000 -41.159200 9.387820 -1.399254 -2.298465 17.862942 -20.573952 -22.417951 2.342145 -1.572386 35.926418 -4.638128 -14.108079 -32.678497 -173.375800 -0.000000 -13.504700
3.336720 16.417528 8.150794 6.757848 15.873213 2.751550 -11.126002 4.492123 0.387499 1.070232 9.905545 -9.778057 0.774983 3.063746 56.637953 2.536643 17.383484 8.253834 4.072800 0.000000 -39.687001 9.399694 -1.435952 -2.247469 17.922446 -20.058481 -21.773975 2.348523 -1.540111 35.706058 -4.616950 -13.888565 -32.818812 -173.410700 -0.000000 -13.515200
3.342887 16.421469 8.283205 6.655294 14.975876 2.915429 -11.089808 4.326799 0.487446 0.390912 8.975004 -11.380288 0.759179 3.099045 57.560940 2.596840 18.109953 5.806070 3.639400 -0.000000 -38.050900 9.410816 -1.468330 -2.203532 17.983886 -19.560929 -21.111090 2.356893 -1.502775 35.423590 -4.589331 -13.650903 -32.910664 -173.466700 0.000000 -13.477300
3.348329 16.426220 8.414332 6.551233 14.092486 3.084149 -11.045966 4.155060 0.608781 -0.269834 7.944294 -12.982865 0.732479 3.125388 58.340765 2.644362 18.600316 3.477509 3.120000 -0.000000 -36.259600 9.423212 -1.495400 -2.169099 18.034707 -19.090604 -20.427202 2.367393 -1.461156 35.086848 -4.555460 -13.394530 -32.965583 -173.540000 0.000001 -13.371200
3.353218 16.431408 8.544321 6.451463 13.222838 3.255451 -10.993751 3.977096 0.748701 -0.907827 6.827663 -14.582924 0.695721 3.143474 58.986116 2.674565 18.848785 1.288718 2.549701 -0.000000 -34.333400 9.438813 -1.516616 -2.145187 18.063392 -18.652308 -19.721815 2.379859 -1.416170 34.705664 -4.516004 -13.120650 -32.995837 -173.626700 0.000000 -13.182300
3.357789 16.436740 8.673383 6.361371 12.362725 3.428336 -10.932956 3.792981 0.903900 -1.519381 5.643558 -16.178677 0.649815 3.153761 59.500535 2.684909 18.864800 -0.736206 1.966899 0.000000 -32.420100 9.458898 -1.531493 -2.131805 18.061083 -18.245077 -18.995969 2.393671 -1.368689 34.291123 -4.471971 -12.832028 -33.012003 -173.722600 0.000000 -12.900200
3.362270 16.441985 8.801742 6.284398 11.506103 3.600984 -10.863510 3.602736 1.070829 -2.101357 4.415723 -17.769287 0.595347 3.156445 59.885604 2.674716 18.668807 -2.588470 1.403100 0.000000 -30.578300 9.484357 -1.540412 -2.127362 18.021300 -17.865127 -18.252444 2.408123 -1.319749 33.854904 -4.424157 -12.531296 -33.021432 -173.824900 0.000000 -12.522600
3.366942 16.447043 8.929714 6.222296 10.644802 3.772829 -10.785876 3.406422 1.245494 -2.650057 3.170921 -19.354883 0.532734 3.151677 60.138074 2.645762 18.293916 -4.261735 0.884000 -0.000000 -28.876000 9.514988 -1.543729 -2.129610 17.942176 -17.503956 -17.495388 2.422203 -1.270186 33.407798 -4.373448 -12.222122 -33.027356 -173.931300 -0.000000 -12.054300
3.371997 16.451877 9.057587 6.175452 9.770588 3.942323 -10.700360 3.204166 1.424498 -3.162938 1.937106 -20.934400 0.462979 3.138925 60.250396 2.602477 17.787318 -5.744486 0.429900 -0.000000 -27.420301 9.550502 -1.542651 -2.135460 17.823851 -17.153862 -16.729731 2.435098 -1.221048 32.960727 -4.320085 -11.906342 -33.029631 -174.041500 -0.000000 -11.507600
3.377632 16.456474 9.185736 6.142051 8.875495 4.108972 -10.607762 2.996548 1.603734 -3.636781 0.745015 -22.507283 0.386873 3.117975 60.213831 2.551015 17.203102 -7.036568 0.049800 -0.000000 -26.216800 9.589359 -1.538286 -2.141583 17.671405 -16.804301 -15.959675 2.445816 -1.172841 32.520234 -4.264613 -11.587934 -33.024008 -174.154999 0.000000 -10.901100
3.383883 16.460863 9.314468 6.120194 7.953940 4.270882 -10.508369 2.784670 1.779457 -4.071896 -0.374768 -24.069944 0.306063 3.088025 60.017219 2.499067 16.602956 -8.129347 -0.252300 0.000000 -25.328500 9.630605 -1.532235 -2.144667 17.489314 -16.448916 -15.188887 2.453796 -1.126209 32.092162 -4.206750 -11.267752 -33.004864 -174.273000 0.000000 -10.256000
3.390753 16.465024 9.444104 6.106762 7.002827 4.425885 -10.402601 2.570341 1.947414 -4.471046 -1.390490 -25.618112 0.222128 3.048505 59.650671 2.454643 16.047375 -9.022786 -0.480700 0.000000 -24.742500 9.672833 -1.526089 -2.141836 17.284177 -16.083322 -14.419456 2.458638 -1.081380 31.678586 -4.146423 -10.947556 -32.966011 -174.396000 0.000000 -9.594700
3.398149 16.469010 9.575018 6.097321 6.022246 4.571936 -10.291111 2.356079 2.102930 -4.839315 -2.270416 -27.146203 0.136593 2.999090 59.106353 2.425117 15.589931 -9.721387 -0.644100 -0.000000 -24.409500 9.714104 -1.521477 -2.130619 17.065119 -15.704088 -13.650046 2.460130 -1.037975 31.275614 -4.084043 -10.630847 -32.901384 -174.523900 -0.000000 -8.938300
3.405833 16.472712 9.707489 6.090422 5.015895 4.705279 -10.173663 2.145220 2.241604 -5.190491 -2.985267 -28.645819 0.050744 2.939270 58.378316 2.416731 15.274513 -10.231036 -0.752200 -0.000000 -24.281701 9.754300 -1.519918 -2.109421 16.835182 -15.316011 -12.878593 2.458550 -0.995740 30.879988 -4.019205 -10.316893 -32.808119 -174.657200 0.000000 -8.300700
3.413614 16.476134 9.841825 6.081472 3.989760 4.823322 -10.050948 1.941433 2.358809 -5.539023 -3.507072 -30.110082 -0.034896 2.869222 57.463865 2.433436 15.126819 -10.564163 -0.814300 -0.000000 -24.281700 9.791947 -1.522743 -2.077037 16.601547 -14.922152 -12.099658 2.454227 -0.953552 30.481402 -3.952777 -10.009273 -32.684909 -174.794200 -0.000000 -7.694400
3.421147 16.479144 9.978328 6.070245 2.953327 4.922405 -9.922737 1.748846 2.450577 -5.907997 -3.813211 -31.530639 -0.120752 2.789171 56.362834 2.476959 15.155653 -10.735697 -0.837101 -0.000000 -24.331500 9.827681 -1.530976 -2.033140 16.364211 -14.532623 -11.308110 2.447869 -0.910562 30.071899 -3.884727 -9.706693 -32.534411 -174.934300 -0.000000 -7.120000
3.428121 16.481656 10.117267 6.055391 1.916926 4.999999 -9.789394 1.571620 2.513525 -6.321355 -3.885514 -32.900943 -0.208395 2.699911 55.076954 2.546223 15.349693 -10.763340 -0.824500 -0.000000 -24.366400 9.861595 -1.545505 -1.977708 16.124186 -14.156706 -10.497781 2.440168 -0.865620 29.641151 -3.815553 -9.409583 -32.360043 -175.076100 0.000000 -6.572700
3.434258 16.483637 10.258910 6.037404 0.891836 5.054069 -9.651091 1.413852 2.545158 -6.805541 -3.712270 -34.215683 -0.300686 2.602536 53.608990 2.637317 15.678973 -10.666081 -0.777500 0.000000 -24.336900 9.894609 -1.566960 -1.911129 15.878695 -13.805044 -9.663719 2.431902 -0.817845 29.181073 -3.745217 -9.115715 -32.166414 -175.219000 0.000001 -6.035000
